<svg width="45" height="45" viewBox="0 0 45 45" fill="none" xmlns="http://www.w3.org/2000/svg">
<path d="M24.375 13.6875V19.125H29.25C29.625 19.125 29.8125 19.5 29.8125 19.875L29.0625 23.4375C29.0625 23.625 28.6875 23.8125 28.5 23.8125H24.375V37.5H18.75V24H15.5625C15.1875 24 15 23.8125 15 23.4375V19.875C15 19.5 15.1875 19.3125 15.5625 19.3125H18.75V13.125C18.75 9.9375 21.1875 7.5 24.375 7.5H29.4375C29.8125 7.5 30 7.6875 30 8.0625V12.5625C30 12.9375 29.8125 13.125 29.4375 13.125H24.9375C24.5625 13.125 24.375 13.3125 24.375 13.6875Z" stroke="#2E2BD0" stroke-width="1.125" stroke-miterlimit="10" stroke-linecap="round"/>
</svg>
