<svg width="45" height="45" viewBox="0 0 45 45" fill="none" xmlns="http://www.w3.org/2000/svg">
<path d="M16.125 33.75H12.375V18.75H16.125V33.75Z" stroke="#2E2BD0" stroke-width="1.125" stroke-miterlimit="10" stroke-linecap="round" stroke-linejoin="round"/>
<path d="M16.125 13.125C16.125 14.1606 15.2855 15 14.25 15C13.2145 15 12.375 14.1606 12.375 13.125C12.375 12.0894 13.2145 11.25 14.25 11.25C15.2855 11.25 16.125 12.0894 16.125 13.125Z" stroke="#2E2BD0" stroke-width="1.125" stroke-miterlimit="10" stroke-linecap="round" stroke-linejoin="round"/>
<path d="M23.625 25.3125C23.625 23.7592 24.8842 22.5 26.4375 22.5C27.9908 22.5 29.25 23.7592 29.25 25.3125V33.75H33V23.6588C33 22.8968 32.8226 22.1451 32.4817 21.4635C30.8204 18.1409 26.2586 17.9914 24.0623 20.1878L23.625 20.625V18.75H19.875V33.75H23.625V25.3125Z" stroke="#2E2BD0" stroke-width="1.125" stroke-miterlimit="10" stroke-linecap="round" stroke-linejoin="round"/>
</svg>
