<svg width="45" height="45" viewBox="0 0 45 45" fill="none" xmlns="http://www.w3.org/2000/svg">
<path d="M12.9375 38.625C15.75 40.3125 19.125 41.25 22.5 41.25C32.8125 41.25 41.25 32.8125 41.25 22.5C41.25 12.1875 32.8125 3.75 22.5 3.75C12.1875 3.75 3.75 12.1875 3.75 22.5C3.75 25.875 4.6875 29.0625 6.1875 31.875L4.08033 39.9795C3.93429 40.5412 4.45419 41.0488 5.01224 40.8894L12.9375 38.625Z" stroke="#2E2BD0" stroke-width="1.125" stroke-miterlimit="10" stroke-linecap="round" stroke-linejoin="round"/>
<path d="M30.9375 27.8409C30.9375 28.1447 30.8699 28.4569 30.7262 28.7606C30.5826 29.0644 30.3967 29.3513 30.1516 29.6213C29.7376 30.0769 29.2813 30.4059 28.7658 30.6169C28.2588 30.8278 27.7095 30.9375 27.118 30.9375C26.2561 30.9375 25.335 30.735 24.3633 30.3216C23.3915 29.9081 22.4197 29.3513 21.4564 28.6509C20.4846 27.9422 19.5636 27.1575 18.6847 26.2884C17.8144 25.4109 17.0285 24.4913 16.3271 23.5294C15.6342 22.5675 15.0765 21.6056 14.6709 20.6522C14.2653 19.6903 14.0625 18.7706 14.0625 17.8931C14.0625 17.3194 14.1639 16.7709 14.3667 16.2647C14.5695 15.75 14.8906 15.2775 15.3385 14.8556C15.8793 14.3241 16.4708 14.0625 17.0961 14.0625C17.3327 14.0625 17.5693 14.1131 17.7806 14.2144C18.0003 14.3156 18.1946 14.4675 18.3467 14.6869L20.3072 17.4459C20.4593 17.6569 20.5691 17.8509 20.6452 18.0366C20.7212 18.2138 20.7635 18.3909 20.7635 18.5513C20.7635 18.7538 20.7043 18.9562 20.586 19.1503C20.4762 19.3444 20.3156 19.5469 20.1128 19.7494L19.4706 20.4159C19.3777 20.5087 19.3354 20.6184 19.3354 20.7534C19.3354 20.8209 19.3439 20.88 19.3608 20.9475C19.3861 21.015 19.4115 21.0656 19.4284 21.1162C19.5805 21.3947 19.8424 21.7575 20.2142 22.1963C20.5945 22.635 21.0001 23.0822 21.4395 23.5294C21.8958 23.9766 22.3352 24.39 22.7831 24.7697C23.2225 25.1409 23.5858 25.3941 23.8732 25.5459C23.9154 25.5628 23.9661 25.5881 24.0253 25.6134C24.0929 25.6387 24.1605 25.6472 24.2365 25.6472C24.3802 25.6472 24.49 25.5966 24.583 25.5038L25.2252 24.8709C25.4364 24.66 25.6392 24.4997 25.8336 24.3984C26.0279 24.2803 26.2223 24.2212 26.4336 24.2212C26.5941 24.2212 26.7631 24.255 26.949 24.3309C27.1349 24.4069 27.3293 24.5166 27.5405 24.66L30.3375 26.6428C30.5572 26.7947 30.7093 26.9719 30.8023 27.1828C30.8868 27.3937 30.9375 27.6047 30.9375 27.8409Z" stroke="#2E2BD0" stroke-width="1.125" stroke-miterlimit="10"/>
</svg>
